<?xml version="1.0" encoding="utf-8"?><svg version="1.1" id="Layer_1" xmlns="http://www.w3.org/2000/svg" xmlns:xlink="http://www.w3.org/1999/xlink" x="0px" y="0px" viewBox="0 0 55.15 122.88" style="enable-background:new 0 0 55.15 122.88" xml:space="preserve"><style type="text/css">.st0{fill-rule:evenodd;clip-rule:evenodd;}</style><g><path class="st0" d="M12.55,0h30.04c1.28,0,2.45,0.52,3.3,1.37c0.84,0.84,1.37,2.01,1.37,3.3v6.99c0,1.28-0.52,2.45-1.37,3.3 c-0.84,0.84-2.01,1.37-3.3,1.37h-0.57c3.81,6.51,6.8,13.22,8.95,20.12c2.39,7.63,3.77,8.48,4.16,16.59c0,0.03,0,0.06,0,0.08h0 v55.97c0,0.07,0,0.14-0.01,0.21c-0.17,3.66-1.07,6.72-2.87,9.05c-1.87,2.42-4.63,3.98-8.44,4.52c-0.08,0.01-0.16,0.02-0.25,0.02v0 H11.91c-0.07,0-0.14,0-0.21-0.01c-3.5-0.15-6.14-1.34-8.08-3.39c-1.9-2.02-3.04-4.81-3.59-8.23c-0.01-0.09-0.02-0.18-0.02-0.27H0 V53.25c0-0.08,0-0.15,0.01-0.22C0.7,44.3,2.21,43.21,4.4,35.77c2.1-7.12,4.82-13.62,8.04-19.45c-1.24-0.03-2.36-0.55-3.18-1.37 c-0.84-0.84-1.37-2.01-1.37-3.3V4.66c0-1.28,0.52-2.45,1.37-3.3C10.1,0.52,11.27,0,12.55,0L12.55,0L12.55,0z M38.83,3.49v9.34h3.76 c0.32,0,0.61-0.13,0.83-0.35c0.21-0.21,0.35-0.51,0.35-0.83V4.66c0-0.32-0.13-0.61-0.35-0.83c-0.21-0.21-0.51-0.35-0.83-0.35l0,0 H38.83L38.83,3.49z M35.32,12.83V3.49h-6.23v9.34H35.32L35.32,12.83z M25.58,12.83V3.49h-5.47v9.34H25.58L25.58,12.83z M16.6,12.83 V3.49h-4.05c-0.32,0-0.61,0.13-0.83,0.35c-0.21,0.21-0.35,0.51-0.35,0.83v6.99c0,0.32,0.13,0.61,0.35,0.83 c0.21,0.21,0.51,0.35,0.83,0.35H16.6L16.6,12.83z M13.14,66.51v9.67c0,1.45-0.02,2.38-0.05,2.79c-0.03,0.41-0.17,0.79-0.41,1.12 c-0.24,0.33-0.57,0.56-0.99,0.69c-0.41,0.13-1.03,0.19-1.86,0.19H7.96v-2.53c0.22,0.02,0.38,0.03,0.49,0.03 c0.26,0,0.47-0.06,0.63-0.2c0.15-0.13,0.24-0.29,0.26-0.49c0.02-0.19,0.04-0.56,0.04-1.11V66.51H13.14L13.14,66.51z M23.31,66.51 v9.68c0,1.1-0.04,1.87-0.11,2.31c-0.07,0.45-0.28,0.9-0.63,1.37c-0.35,0.47-0.81,0.82-1.39,1.06c-0.58,0.24-1.25,0.36-2.03,0.36 c-0.86,0-1.63-0.14-2.28-0.43c-0.66-0.29-1.16-0.66-1.48-1.12c-0.33-0.46-0.52-0.95-0.58-1.45c-0.06-0.51-0.09-1.58-0.09-3.21 v-8.57h3.77v10.86c0,0.63,0.03,1.04,0.1,1.21c0.07,0.18,0.2,0.27,0.41,0.27c0.23,0,0.38-0.1,0.45-0.29c0.07-0.2,0.1-0.65,0.1-1.37 V66.51H23.31L23.31,66.51z M28.7,66.51v14.47h-3.77V66.51H28.7L28.7,66.51z M39.14,72.83h-3.77v-2.51c0-0.73-0.04-1.19-0.12-1.37 c-0.08-0.18-0.26-0.27-0.53-0.27c-0.3,0-0.5,0.11-0.58,0.33c-0.08,0.22-0.13,0.7-0.13,1.43v6.71c0,0.7,0.04,1.16,0.13,1.38 c0.08,0.21,0.27,0.32,0.56,0.32c0.28,0,0.46-0.11,0.55-0.32c0.09-0.21,0.13-0.72,0.13-1.52v-1.82h3.77v0.56 c0,1.5-0.11,2.56-0.32,3.19c-0.21,0.63-0.68,1.18-1.4,1.65c-0.73,0.47-1.62,0.71-2.68,0.71c-1.1,0-2.01-0.2-2.73-0.6 c-0.71-0.4-1.19-0.95-1.42-1.66c-0.23-0.71-0.35-1.77-0.35-3.19v-4.23c0-1.04,0.04-1.82,0.11-2.35c0.07-0.52,0.28-1.02,0.64-1.51 c0.35-0.48,0.84-0.86,1.47-1.14c0.63-0.28,1.35-0.41,2.17-0.41c1.11,0,2.02,0.21,2.74,0.64c0.72,0.43,1.19,0.96,1.42,1.6 c0.23,0.64,0.34,1.63,0.34,2.99V72.83L39.14,72.83z M40.65,66.51h6.28v2.89h-2.51v2.76h2.34v2.74h-2.34v3.18h2.76v2.89h-6.53V66.51 L40.65,66.51z M3.49,60.37h48.17v-7.26h0c-0.38-7.78-1.71-8.31-4.01-15.64c-2.21-7.06-5.31-13.91-9.31-20.54l0,0l-22.34,0.16 c-3.33,5.86-6.14,12.43-8.27,19.66c-2.12,7.2-3.59,8.05-4.25,16.54V60.37L3.49,60.37z M51.66,87.15H3.49v23.71 c0.45,2.65,1.3,4.77,2.66,6.22c1.31,1.39,3.16,2.2,5.68,2.3c0.02,0,0.05,0,0.07,0h31.57c2.78-0.42,4.75-1.52,6.04-3.18 c1.33-1.73,2.01-4.12,2.14-7.07l0-0.06V87.15L51.66,87.15z"/></g></svg>